<svg width="199" height="41" fill="none" xmlns="http://www.w3.org/2000/svg"><path d="M28.615 33.717L2.037 15.384C-.656 13.526.259 9.658 3.617 8.748l28.248-7.667a4 4 0 015.357 3.692l-1.674 25.999c-.198 3.086-4.24 4.803-6.933 2.945z" fill="url(#paint0_linear)"/><path d="M20.185 38.243L4.527 7.623a4.271 4.271 0 014.455-6.165L38 5.936a4.271 4.271 0 013.151 6.166L27.784 38.244a4.271 4.271 0 01-7.599-.001z" fill="url(#paint1_linear)"/><path d="M37.151 5.804L22.686 3.572 4.926 8.394l7.089 13.868 16.6 11.455c.366.25.769.441 1.194.567l6.305-12.33 1.037-16.15z" fill="#001A49"/><path fill-rule="evenodd" clip-rule="evenodd" d="M113.139 6.665a2.718 2.718 0 00-2.718 2.719 2.746 2.746 0 002.718 2.718 2.719 2.719 0 100-5.437zm2.267 6.766h-4.532v15.102h4.532V13.431zm17.62 13.039a7.58 7.58 0 001.95-5.488 7.578 7.578 0 00-7.217-7.973 5.673 5.673 0 00-4.501 1.841v-1.419h-4.531v21.144h4.531v-7.46a5.672 5.672 0 004.501 1.842 7.585 7.585 0 005.267-2.486zm-6.235-8.992a3.596 3.596 0 013.655 3.504 3.446 3.446 0 01-3.594 3.686 3.596 3.596 0 01-.061-7.19z" fill="#001A49"/><path d="M148.96 24c0 3.474-3.021 4.954-6.283 4.954a6.612 6.612 0 01-6.493-3.596l3.926-2.234a2.481 2.481 0 002.567 1.778c1.087 0 1.63-.333 1.63-.936 0-1.662-7.43-.785-7.43-6.012 0-3.292 2.778-4.953 5.926-4.953a6.607 6.607 0 015.889 3.232l-3.865 2.084a2.195 2.195 0 00-2.024-1.333c-.785 0-1.268.296-1.268.846-.005 1.733 7.425.585 7.425 6.17zm16.559-10.569v15.102h-4.531v-1.422a5.17 5.17 0 01-4.32 1.843c-3.05 0-5.647-2.175-5.647-6.253v-9.27h4.53v8.609a2.489 2.489 0 002.628 2.748c1.661 0 2.815-.966 2.815-3.111v-8.246h4.525zm25.967 5.829v9.273h-4.53v-8.88c0-1.51-.726-2.477-2.175-2.477-1.511 0-2.356 1.058-2.356 2.84v8.517h-4.532v-8.88c0-1.51-.724-2.477-2.174-2.477-1.51 0-2.356 1.058-2.356 2.84v8.517h-4.53V13.431h4.537v1.384a4.637 4.637 0 014.048-1.812 4.496 4.496 0 013.957 1.993 4.976 4.976 0 014.381-1.993c3.466.006 5.73 2.481 5.73 6.256zm3.838-5.922a3.363 3.363 0 100-6.725 3.363 3.363 0 000 6.725z" fill="#001A49"/><path fill-rule="evenodd" clip-rule="evenodd" d="M48.566 6.484h4.532v22.05h-4.532V6.483zm7.098 14.498a8 8 0 118 7.975 7.915 7.915 0 01-8-7.975zm7.945-3.383a3.474 3.474 0 013.533 3.383h.006a3.388 3.388 0 01-3.48 3.565 3.474 3.474 0 01-.059-6.948zm26.124-4.172v14.348c0 5.074-3.957 7.218-7.973 7.218a7.722 7.722 0 01-7.159-3.655l3.866-2.236a3.453 3.453 0 003.444 1.904 3.01 3.01 0 003.407-3.231v-1.39a5.366 5.366 0 01-4.41 1.963 7.675 7.675 0 010-15.344 5.366 5.366 0 014.41 1.963v-1.54h4.415zm-6.561 3.763a3.66 3.66 0 012.152 3.486v.004a3.419 3.419 0 01-3.657 3.505 3.66 3.66 0 111.505-6.995zm9.127 3.782a8 8 0 118 7.975 7.915 7.915 0 01-8-7.965v-.01zm7.945-3.386a3.476 3.476 0 013.534 3.386v.01a3.391 3.391 0 01-3.474 3.554 3.476 3.476 0 01-.06-6.95z" fill="#001A49"/><defs><linearGradient id="paint0_linear" x1="19.487" y1="41.733" x2="36.09" y2="16.498" gradientUnits="userSpaceOnUse"><stop stop-color="#FFD7A9"/><stop offset="1" stop-color="#FFAE70"/></linearGradient><linearGradient id="paint1_linear" x1="25.238" y1="49.82" x2="51.793" y2="23.541" gradientUnits="userSpaceOnUse"><stop stop-color="#CD10FF"/><stop offset="1" stop-color="#9F06FF"/></linearGradient></defs></svg>